<?xml version="1.0" encoding="UTF-8" standalone="no"?>
<!-- Created with Inkscape (http://www.inkscape.org/) -->

<svg
   version="1.1"
   id="svg2"
   width="571.53485"
   height="571.53485"
   viewBox="0 0 571.53485 571.53485"
   sodipodi:docname="plus.svg"
   inkscape:version="1.2.2 (b0a8486541, 2022-12-01)"
   xmlns:inkscape="http://www.inkscape.org/namespaces/inkscape"
   xmlns:sodipodi="http://sodipodi.sourceforge.net/DTD/sodipodi-0.dtd"
   xmlns="http://www.w3.org/2000/svg"
   xmlns:svg="http://www.w3.org/2000/svg">
  <defs
     id="defs6" />
  <sodipodi:namedview
     id="namedview4"
     pagecolor="#ffffff"
     bordercolor="#000000"
     borderopacity="0.25"
     inkscape:showpageshadow="2"
     inkscape:pageopacity="0.0"
     inkscape:pagecheckerboard="0"
     inkscape:deskcolor="#d1d1d1"
     showgrid="false"
     inkscape:zoom="0.5851988"
     inkscape:cx="526.31687"
     inkscape:cy="181.98944"
     inkscape:window-width="1366"
     inkscape:window-height="699"
     inkscape:window-x="0"
     inkscape:window-y="0"
     inkscape:window-maximized="1"
     inkscape:current-layer="g8" />
  <g
     inkscape:groupmode="layer"
     inkscape:label="Image"
     id="g8">
    <path
       style="fill:#ffffff"
       d="m 277.18855,570.37443 c -5.20294,-1.70096 -11.65786,-6.36215 -14.90455,-10.7628 -5.55758,-7.53287 -5.3886,-3.48733 -5.3886,-129.01052 V 314.8026 l -117.75,-0.26998 C 7.0443153,314.22972 18.359215,314.91841 9.3715153,306.63384 3.2303153,300.97306 0.70541533,295.7907 0.12071533,287.6464 -0.74778467,275.54761 4.7357153,265.52252 15.257515,259.97265 l 5.1379,-2.71002 117.999985,-0.5 118,-0.5 0.5,-118 0.5,-117.999991 2.71002,-5.13785 c 5.54987,-10.5218696 15.57496,-16.00531963 27.67375,-15.13677963 8.1443,0.58465 13.32666,3.10952003 18.98744,9.25073003 8.28454,8.9876596 7.59589,-2.32519 7.89877,129.7578106 l 0.26997,117.73392 117.73003,0.26608 c 117.46312,0.26548 117.74038,0.27087 122.29989,2.38017 5.64108,2.60965 11.14201,8.15268 14.15033,14.25863 3.18384,6.4622 3.18407,17.82979 4.8e-4,23.84948 -3.4877,6.59471 -7.86458,10.95558 -14.03908,13.98771 l -5.6816,2.79009 -117.22994,0.27006 -117.22995,0.27005 -0.27005,117.22995 -0.27006,117.22994 -2.79009,5.6816 c -6.33301,12.89627 -21.44432,19.67118 -34.41676,15.4302 z"
       id="path221" />
  </g>
</svg>
